<svg xmlns="http://www.w3.org/2000/svg" width="984" height="493" overflow="hidden"><defs><clipPath id="a"><path d="M110 84h984v493H110z"/></clipPath></defs><g clip-path="url(#a)" transform="translate(-110 -84)"><path fill="#fff" fill-rule="evenodd" d="M110 84h985.707v492.853H110z"/><path d="M138.588 154.5h67.824c8.885 0 16.088 11.417 16.088 25.5s-7.203 25.5-16.088 25.5h-67.824c-8.885 0-16.088-11.417-16.088-25.5s7.203-25.5 16.088-25.5z" stroke="#2F5597" stroke-width="3" stroke-miterlimit="8" fill="none"/><g aria-label="start" fill="#2f5597"><path d="M149.357 188.168q-1.56 0-3.048-.408t-2.376-1.032l1.152-2.28q.864.576 2.064.936 1.224.336 2.4.336 2.688 0 2.688-1.416 0-.672-.696-.936-.672-.264-2.184-.504-1.584-.24-2.592-.552-.984-.312-1.728-1.08-.72-.792-.72-2.184 0-1.824 1.512-2.904 1.536-1.104 4.128-1.104 1.32 0 2.64.312 1.32.288 2.16.792l-1.152 2.28q-1.632-.96-3.672-.96-1.32 0-2.016.408-.672.384-.672 1.032 0 .72.72 1.032.744.288 2.28.552 1.536.24 2.52.552.984.312 1.68 1.056.72.744.72 2.112 0 1.8-1.56 2.88-1.56 1.08-4.248 1.08zM165.461 187.304q-.528.432-1.296.648-.744.216-1.584.216-2.112 0-3.264-1.104-1.152-1.104-1.152-3.216v-6.168h-2.112v-2.4h2.112v-2.928h3v2.928h3.432v2.4h-3.432v6.096q0 .936.456 1.44.456.48 1.32.48 1.008 0 1.68-.528zM172.829 175.04q2.832 0 4.32 1.368 1.512 1.344 1.512 4.08V188h-2.832v-1.56q-.552.84-1.584 1.296-1.008.432-2.448.432t-2.52-.48q-1.08-.504-1.68-1.368-.576-.888-.576-1.992 0-1.728 1.272-2.76 1.296-1.056 4.056-1.056h3.312v-.192q0-1.344-.816-2.064-.792-.72-2.376-.72-1.08 0-2.136.336-1.032.336-1.752.936l-1.176-2.184q1.008-.768 2.424-1.176 1.416-.408 3-.408zm-.408 10.944q1.128 0 1.992-.504.888-.528 1.248-1.488v-1.488h-3.096q-2.592 0-2.592 1.704 0 .816.648 1.296.648.48 1.8.48zM185.357 177.056q1.296-2.016 4.56-2.016v2.856q-.384-.072-.696-.072-1.752 0-2.736 1.032-.984 1.008-.984 2.928V188h-3v-12.816h2.856zM200.645 187.304q-.528.432-1.296.648-.744.216-1.584.216-2.112 0-3.264-1.104-1.152-1.104-1.152-3.216v-6.168h-2.112v-2.4h2.112v-2.928h3v2.928h3.432v2.4h-3.432v6.096q0 .936.456 1.44.456.48 1.32.48 1.008 0 1.68-.528z"/></g><path d="M296.5 204.5l37-51h148l-37 51z" stroke="#2F5597" stroke-width="3" stroke-miterlimit="8" fill="none"/><g aria-label="edit" fill="#2f5597"><path d="M378.127 180.664q0 .312-.048.888h-10.056q.264 1.416 1.368 2.256 1.128.816 2.784.816 2.112 0 3.48-1.392l1.608 1.848q-.864 1.032-2.184 1.56-1.32.528-2.976.528-2.112 0-3.72-.84T365.887 184q-.864-1.512-.864-3.408 0-1.872.84-3.36.864-1.512 2.376-2.352 1.512-.84 3.408-.84 1.872 0 3.336.84 1.488.816 2.304 2.328.84 1.488.84 3.456zm-6.48-4.224q-1.44 0-2.448.864-.984.84-1.2 2.256h7.272q-.192-1.392-1.176-2.256-.984-.864-2.448-.864zM393.559 169.192V187h-2.88v-1.656q-.744.912-1.848 1.368-1.08.456-2.4.456-1.848 0-3.336-.816-1.464-.816-2.304-2.304-.84-1.512-.84-3.456t.84-3.432q.84-1.488 2.304-2.304 1.488-.816 3.336-.816 1.272 0 2.328.432 1.056.432 1.8 1.296v-6.576zm-6.768 15.408q1.08 0 1.944-.48.864-.504 1.368-1.416.504-.912.504-2.112 0-1.2-.504-2.112-.504-.912-1.368-1.392-.864-.504-1.944-.504t-1.944.504q-.864.48-1.368 1.392-.504.912-.504 2.112 0 1.2.504 2.112.504.912 1.368 1.416.864.48 1.944.48zM397.495 174.184h3V187h-3zm1.512-2.112q-.816 0-1.368-.504-.552-.528-.552-1.296t.552-1.272q.552-.528 1.368-.528.816 0 1.368.504.552.48.552 1.224 0 .792-.552 1.344-.528.528-1.368.528zM412.135 186.304q-.528.432-1.296.648-.744.216-1.584.216-2.112 0-3.264-1.104-1.152-1.104-1.152-3.216v-6.168h-2.112v-2.4h2.112v-2.928h3v2.928h3.432v2.4h-3.432v6.096q0 .936.456 1.44.456.48 1.32.48 1.008 0 1.68-.528z"/></g><path d="M311.5 246.5h155v51h-155z" fill="none" stroke="#2f5597" stroke-width="3" stroke-miterlimit="8"/><g aria-label="lint" fill="#2f5597"><path d="M370.079 262.192h3V280h-3zM377.015 267.184h3V280h-3zm1.512-2.112q-.816 0-1.368-.504-.552-.528-.552-1.296t.552-1.272q.552-.528 1.368-.528.816 0 1.368.504.552.48.552 1.224 0 .792-.552 1.344-.528.528-1.368.528zM391.223 267.04q2.424 0 3.888 1.416t1.464 4.2V280h-3v-6.96q0-1.68-.792-2.52-.792-.864-2.256-.864-1.656 0-2.616 1.008-.96.984-.96 2.856V280h-3v-12.816h2.856v1.656q.744-.888 1.872-1.344 1.128-.456 2.544-.456zM408.095 279.304q-.528.432-1.296.648-.744.216-1.584.216-2.112 0-3.264-1.104-1.152-1.104-1.152-3.216v-6.168h-2.112v-2.4h2.112v-2.928h3v2.928h3.432v2.4h-3.432v6.096q0 .936.456 1.44.456.48 1.32.48 1.008 0 1.68-.528z"/></g><path d="M311.5 375l77.5-36.5 77.5 36.5-77.5 36.5z" stroke="#2F5597" stroke-width="3" stroke-miterlimit="8" fill="none"/><g aria-label="ok?" fill="#2f5597"><path d="M373.755 383.168q-1.944 0-3.504-.84T367.803 380q-.864-1.512-.864-3.408t.864-3.384q.888-1.488 2.448-2.328 1.56-.84 3.504-.84 1.968 0 3.528.84t2.424 2.328q.888 1.488.888 3.384t-.888 3.408q-.864 1.488-2.424 2.328-1.56.84-3.528.84zm0-2.568q1.656 0 2.736-1.104 1.08-1.104 1.08-2.904 0-1.8-1.08-2.904-1.08-1.104-2.736-1.104-1.656 0-2.736 1.104-1.056 1.104-1.056 2.904 0 1.8 1.056 2.904 1.08 1.104 2.736 1.104zM388.707 377.504l-2.232 2.112V383h-3v-17.808h3v10.752l6.216-5.76h3.6l-5.352 5.376 5.856 7.44h-3.648zM402.339 377.432q0-1.296.576-2.136.6-.864 1.728-1.872.864-.768 1.272-1.32.432-.576.432-1.296 0-1.008-.816-1.632-.816-.624-2.184-.624-2.592 0-3.912 1.848l-2.328-1.512q1.032-1.416 2.664-2.16 1.632-.768 3.84-.768 2.688 0 4.272 1.176 1.608 1.152 1.608 3.192 0 .984-.336 1.728-.312.744-.768 1.272-.456.504-1.2 1.176-.912.816-1.368 1.44-.432.624-.432 1.488zm1.536 5.736q-.84 0-1.392-.528-.528-.552-.528-1.344t.528-1.32q.552-.528 1.392-.528.816 0 1.344.528.552.528.552 1.32t-.552 1.344q-.528.528-1.344.528z"/></g><path d="M755.5 463l77.5-36.5 77.5 36.5-77.5 36.5z" stroke="#2F5597" stroke-width="3" stroke-miterlimit="8" fill="none"/><g aria-label="ok?" fill="#2f5597"><path d="M817.866 471.168q-1.944 0-3.504-.84T811.914 468q-.864-1.512-.864-3.408t.864-3.384q.888-1.488 2.448-2.328 1.56-.84 3.504-.84 1.968 0 3.528.84t2.424 2.328q.888 1.488.888 3.384t-.888 3.408q-.864 1.488-2.424 2.328-1.56.84-3.528.84zm0-2.568q1.656 0 2.736-1.104 1.08-1.104 1.08-2.904 0-1.8-1.08-2.904-1.08-1.104-2.736-1.104-1.656 0-2.736 1.104-1.056 1.104-1.056 2.904 0 1.8 1.056 2.904 1.08 1.104 2.736 1.104zM832.818 465.504l-2.232 2.112V471h-3v-17.808h3v10.752l6.216-5.76h3.6l-5.352 5.376 5.856 7.44h-3.648zM846.45 465.432q0-1.296.576-2.136.6-.864 1.728-1.872.864-.768 1.272-1.32.432-.576.432-1.296 0-1.008-.816-1.632-.816-.624-2.184-.624-2.592 0-3.912 1.848l-2.328-1.512q1.032-1.416 2.664-2.16 1.632-.768 3.84-.768 2.688 0 4.272 1.176 1.608 1.152 1.608 3.192 0 .984-.336 1.728-.312.744-.768 1.272-.456.504-1.2 1.176-.912.816-1.368 1.44-.432.624-.432 1.488zm1.536 5.736q-.84 0-1.392-.528-.528-.552-.528-1.344t.528-1.32q.552-.528 1.392-.528.816 0 1.344.528.552.528.552 1.32t-.552 1.344q-.528.528-1.344.528z"/></g><path d="M959.645 437.5h80.715c10.57 0 19.14 11.417 19.14 25.5s-8.57 25.5-19.14 25.5h-80.715c-10.574 0-19.145-11.417-19.145-25.5s8.571-25.5 19.145-25.5z" stroke="#2F5597" stroke-width="3" stroke-miterlimit="8" fill="none"/><g aria-label="end" fill="#2f5597"><path d="M989.467 464.664q0 .312-.048.888h-10.056q.264 1.416 1.368 2.256 1.128.816 2.784.816 2.112 0 3.48-1.392l1.608 1.848q-.864 1.032-2.184 1.56-1.32.528-2.976.528-2.112 0-3.72-.84T977.227 468q-.864-1.512-.864-3.408 0-1.872.84-3.36.864-1.512 2.376-2.352 1.512-.84 3.408-.84 1.872 0 3.336.84 1.488.816 2.304 2.328.84 1.488.84 3.456zm-6.48-4.224q-1.44 0-2.448.864-.984.84-1.2 2.256h7.272q-.192-1.392-1.176-2.256-.984-.864-2.448-.864zM999.619 458.04q2.424 0 3.888 1.416t1.464 4.2V471h-3v-6.96q0-1.68-.792-2.52-.792-.864-2.256-.864-1.656 0-2.616 1.008-.96.984-.96 2.856V471h-3v-12.816h2.856v1.656q.744-.888 1.872-1.344 1.128-.456 2.544-.456zM1021.459 453.192V471h-2.88v-1.656q-.744.912-1.848 1.368-1.08.456-2.4.456-1.848 0-3.336-.816-1.464-.816-2.304-2.304-.84-1.512-.84-3.456t.84-3.432q.84-1.488 2.304-2.304 1.488-.816 3.336-.816 1.272 0 2.328.432 1.056.432 1.8 1.296v-6.576zm-6.768 15.408q1.08 0 1.944-.48.864-.504 1.368-1.416.504-.912.504-2.112 0-1.2-.504-2.112-.504-.912-1.368-1.392-.864-.504-1.944-.504t-1.944.504q-.864.48-1.368 1.392-.504.912-.504 2.112 0 1.2.504 2.112.504.912 1.368 1.416.864.48 1.944.48z"/></g><path d="M222.5 180h47.61v-1.5l-1.5 1.5h37.11v-3h-38.61v1.5l1.5-1.5H222.5zm83.22-1.5l-6 7.5 15-7.5-15-7.5zM390 204.5v22.498h-1.5l1.5-1.5v11.999h-3v-13.499h1.5l-1.5 1.5V204.5zm-1.5 32.997l7.5-6-7.5 15-7.5-15zM390 297.5v22.098h-1.5l1.5-1.5v11.599h-3v-13.099h1.5l-1.5 1.5V297.5zm-1.5 32.197l7.5-6-7.5 15-7.5-15z" fill="#2F5597"/><path d="M518.5 204.5l37-51h148l-37 51z" stroke="#2F5597" stroke-width="3" stroke-miterlimit="8" fill="none"/><g aria-label="save" fill="#2f5597"><path d="M588.594 187.168q-1.56 0-3.048-.408t-2.376-1.032l1.152-2.28q.864.576 2.064.936 1.224.336 2.4.336 2.688 0 2.688-1.416 0-.672-.696-.936-.672-.264-2.184-.504-1.584-.24-2.592-.552-.984-.312-1.728-1.08-.72-.792-.72-2.184 0-1.824 1.512-2.904 1.536-1.104 4.128-1.104 1.32 0 2.64.312 1.32.288 2.16.792l-1.152 2.28q-1.632-.96-3.672-.96-1.32 0-2.016.408-.672.384-.672 1.032 0 .72.72 1.032.744.288 2.28.552 1.536.24 2.52.552.984.312 1.68 1.056.72.744.72 2.112 0 1.8-1.56 2.88-1.56 1.08-4.248 1.08zM601.89 174.04q2.832 0 4.32 1.368 1.512 1.344 1.512 4.08V187h-2.832v-1.56q-.552.84-1.584 1.296-1.008.432-2.448.432t-2.52-.48q-1.08-.504-1.68-1.368-.576-.888-.576-1.992 0-1.728 1.272-2.76 1.296-1.056 4.056-1.056h3.312v-.192q0-1.344-.816-2.064-.792-.72-2.376-.72-1.08 0-2.136.336-1.032.336-1.752.936l-1.176-2.184q1.008-.768 2.424-1.176 1.416-.408 3-.408zm-.408 10.944q1.128 0 1.992-.504.888-.528 1.248-1.488v-1.488h-3.096q-2.592 0-2.592 1.704 0 .816.648 1.296.648.48 1.8.48zM623.322 174.184L617.826 187h-3.096l-5.496-12.816h3.12l3.984 9.504 4.104-9.504zM636.882 180.664q0 .312-.048.888h-10.056q.264 1.416 1.368 2.256 1.128.816 2.784.816 2.112 0 3.48-1.392l1.608 1.848q-.864 1.032-2.184 1.56-1.32.528-2.976.528-2.112 0-3.72-.84T624.642 184q-.864-1.512-.864-3.408 0-1.872.84-3.36.864-1.512 2.376-2.352 1.512-.84 3.408-.84 1.872 0 3.336.84 1.488.816 2.304 2.328.84 1.488.84 3.456zm-6.48-4.224q-1.44 0-2.448.864-.984.84-1.2 2.256h7.272q-.192-1.392-1.176-2.256-.984-.864-2.448-.864z"/></g><path d="M533.5 246.5h155v51h-155z" fill="none" stroke="#2f5597" stroke-width="3" stroke-miterlimit="8"/><g aria-label="format" fill="#2f5597"><path d="M575.509 264.448q-1.896 0-1.896 2.064v.768h3.528v2.4h-3.432V280h-3v-10.32h-2.112v-2.4h2.112v-.816q0-2.064 1.2-3.24 1.2-1.2 3.384-1.2 1.728 0 2.712.696l-.84 2.256q-.768-.528-1.656-.528zM584.725 280.168q-1.944 0-3.504-.84T578.773 277q-.864-1.512-.864-3.408t.864-3.384q.888-1.488 2.448-2.328 1.56-.84 3.504-.84 1.968 0 3.528.84t2.424 2.328q.888 1.488.888 3.384t-.888 3.408q-.864 1.488-2.424 2.328-1.56.84-3.528.84zm0-2.568q1.656 0 2.736-1.104 1.08-1.104 1.08-2.904 0-1.8-1.08-2.904-1.08-1.104-2.736-1.104-1.656 0-2.736 1.104-1.056 1.104-1.056 2.904 0 1.8 1.056 2.904 1.08 1.104 2.736 1.104zM597.3 269.056q1.297-2.016 4.56-2.016v2.856q-.383-.072-.695-.072-1.752 0-2.736 1.032-.984 1.008-.984 2.928V280h-3v-12.816h2.856zM620.58 267.04q2.425 0 3.84 1.416 1.417 1.392 1.417 4.2V280h-3v-6.96q0-1.68-.744-2.52-.744-.864-2.136-.864-1.512 0-2.424 1.008-.912.984-.912 2.832V280h-3v-6.96q0-1.68-.744-2.52-.744-.864-2.136-.864-1.536 0-2.448.984-.888.984-.888 2.856V280h-3v-12.816h2.856v1.632q.72-.864 1.8-1.32 1.08-.456 2.4-.456 1.44 0 2.544.552 1.128.528 1.776 1.584.792-1.008 2.04-1.56 1.248-.576 2.76-.576zM634.573 267.04q2.832 0 4.32 1.368 1.512 1.344 1.512 4.08V280h-2.832v-1.56q-.552.84-1.584 1.296-1.008.432-2.448.432t-2.52-.48q-1.08-.504-1.68-1.368-.576-.888-.576-1.992 0-1.728 1.272-2.76 1.296-1.056 4.056-1.056h3.312v-.192q0-1.344-.816-2.064-.792-.72-2.376-.72-1.08 0-2.136.336-1.032.336-1.752.936l-1.176-2.184q1.008-.768 2.424-1.176 1.416-.408 3-.408zm-.408 10.944q1.128 0 1.992-.504.888-.528 1.248-1.488v-1.488h-3.096q-2.592 0-2.592 1.704 0 .816.648 1.296.648.48 1.8.48zM651.949 279.304q-.528.432-1.296.648-.744.216-1.584.216-2.112 0-3.264-1.104-1.152-1.104-1.152-3.216v-6.168h-2.112v-2.4h2.112v-2.928h3v2.928h3.432v2.4h-3.432v6.096q0 .936.456 1.44.456.48 1.32.48 1.008 0 1.68-.528z"/></g><path d="M533.5 375l77.5-36.5 77.5 36.5-77.5 36.5z" stroke="#2F5597" stroke-width="3" stroke-miterlimit="8" fill="none"/><g aria-label="ready?" fill="#2f5597"><path d="M573.407 372.056q1.296-2.016 4.56-2.016v2.856q-.384-.072-.696-.072-1.752 0-2.736 1.032-.984 1.008-.984 2.928V383h-3v-12.816h2.856zM592.439 376.664q0 .312-.048.888h-10.056q.264 1.416 1.368 2.256 1.128.816 2.784.816 2.112 0 3.48-1.392l1.608 1.848q-.864 1.032-2.184 1.56-1.32.528-2.976.528-2.112 0-3.72-.84T580.199 380q-.864-1.512-.864-3.408 0-1.872.84-3.36.864-1.512 2.376-2.352 1.512-.84 3.408-.84 1.872 0 3.336.84 1.488.816 2.304 2.328.84 1.488.84 3.456zm-6.48-4.224q-1.44 0-2.448.864-.984.84-1.2 2.256h7.272q-.192-1.392-1.176-2.256-.984-.864-2.448-.864zM599.855 370.04q2.832 0 4.32 1.368 1.512 1.344 1.512 4.08V383h-2.832v-1.56q-.552.84-1.584 1.296-1.008.432-2.448.432t-2.52-.48q-1.08-.504-1.68-1.368-.576-.888-.576-1.992 0-1.728 1.272-2.76 1.296-1.056 4.056-1.056h3.312v-.192q0-1.344-.816-2.064-.792-.72-2.376-.72-1.08 0-2.136.336-1.032.336-1.752.936l-1.176-2.184q1.008-.768 2.424-1.176 1.416-.408 3-.408zm-.408 10.944q1.128 0 1.992-.504.888-.528 1.248-1.488v-1.488h-3.096q-2.592 0-2.592 1.704 0 .816.648 1.296.648.48 1.8.48zM622.199 365.192V383h-2.88v-1.656q-.744.912-1.848 1.368-1.08.456-2.4.456-1.848 0-3.336-.816-1.464-.816-2.304-2.304-.84-1.512-.84-3.456t.84-3.432q.84-1.488 2.304-2.304 1.488-.816 3.336-.816 1.272 0 2.328.432 1.056.432 1.8 1.296v-6.576zM615.43 380.6q1.08 0 1.944-.48.864-.504 1.368-1.416.504-.912.504-2.112 0-1.2-.504-2.112-.504-.912-1.368-1.392-.864-.504-1.944-.504t-1.944.504q-.864.48-1.368 1.392-.504.912-.504 2.112 0 1.2.504 2.112.504.912 1.368 1.416.864.48 1.944.48zM638.135 370.184l-6 13.848q-.84 2.088-2.04 2.928-1.2.864-2.904.864-.96 0-1.896-.312-.936-.312-1.536-.864l1.2-2.208q.432.408 1.008.648.6.24 1.2.24.792 0 1.296-.408.528-.408.96-1.368l.216-.504-5.592-12.864h3.12l4.032 9.48 4.056-9.48zM644.207 377.432q0-1.296.576-2.136.6-.864 1.728-1.872.864-.768 1.272-1.32.432-.576.432-1.296 0-1.008-.816-1.632-.816-.624-2.184-.624-2.592 0-3.912 1.848l-2.328-1.512q1.032-1.416 2.664-2.16 1.632-.768 3.84-.768 2.688 0 4.272 1.176 1.608 1.152 1.608 3.192 0 .984-.336 1.728-.312.744-.768 1.272-.456.504-1.2 1.176-.912.816-1.368 1.44-.432.624-.432 1.488zm1.536 5.736q-.84 0-1.392-.528-.528-.552-.528-1.344t.528-1.32q.552-.528 1.392-.528.816 0 1.344.528.552.528.552 1.32t-.552 1.344q-.528.528-1.344.528z"/></g><path d="M612 204.5v22.498h-1.5l1.5-1.5v11.999h-3v-13.499h1.5l-1.5 1.5V204.5zm-1.5 32.997l7.5-6-7.5 15-7.5-15zM612 297.5v22.098h-1.5l1.5-1.5v11.599h-3v-13.099h1.5l-1.5 1.5V297.5zm-1.5 32.197l7.5-6-7.5 15-7.5-15zM466.5 376.126h30.816V178.5l-1.5 1.5h32.07v-3h-33.57v197.626l1.5-1.5H466.5zM527.886 178.5l-6 7.5 15-7.5-15-7.5zM387.776 411.151v24l1.5-1.5H251.255l1.5 1.5V178.5l-1.5 1.5H306.5v-3h-56.745v259.651h141.021v-25.5zM306.5 178.5l-6 7.5 15-7.5-15-7.5zM688.5 376.126h28.856V178.5l-1.5 1.5h34.03v-3h-35.53v197.626l1.5-1.5H688.5zM749.886 178.5l-6 7.5 15-7.5-15-7.5z" fill="#2F5597"/><path d="M740.5 204.5l37-51h148l-37 51z" stroke="#2F5597" stroke-width="3" stroke-miterlimit="8" fill="none"/><g aria-label="run build" fill="#2f5597"><path d="M780.962 176.056q1.296-2.016 4.56-2.016v2.856q-.384-.072-.696-.072-1.752 0-2.736 1.032-.984 1.008-.984 2.928V187h-3v-12.816h2.856zM800.594 174.184V187h-2.856v-1.632q-.72.864-1.8 1.344-1.08.456-2.328.456-2.568 0-4.056-1.416-1.464-1.44-1.464-4.248v-7.32h3v6.912q0 1.728.768 2.592.792.84 2.232.84 1.608 0 2.544-.984.96-1.008.96-2.88v-6.48zM811.802 174.04q2.424 0 3.888 1.416t1.464 4.2V187h-3v-6.96q0-1.68-.792-2.52-.792-.864-2.256-.864-1.656 0-2.616 1.008-.96.984-.96 2.856V187h-3v-12.816h2.856v1.656q.744-.888 1.872-1.344 1.128-.456 2.544-.456zM834.698 174.04q1.872 0 3.336.816 1.488.816 2.328 2.304.84 1.488.84 3.432t-.84 3.456q-.84 1.488-2.328 2.304-1.464.816-3.336.816-1.32 0-2.424-.456-1.08-.456-1.824-1.368V187h-2.856v-17.808h3v6.552q.768-.84 1.8-1.272 1.056-.432 2.304-.432zm-.336 10.56q1.656 0 2.712-1.104 1.08-1.104 1.08-2.904 0-1.8-1.08-2.904-1.056-1.104-2.712-1.104-1.08 0-1.944.504-.864.48-1.368 1.392-.504.912-.504 2.112 0 1.2.504 2.112.504.912 1.368 1.416.864.48 1.944.48zM856.466 174.184V187h-2.856v-1.632q-.72.864-1.8 1.344-1.08.456-2.328.456-2.568 0-4.056-1.416-1.464-1.44-1.464-4.248v-7.32h3v6.912q0 1.728.768 2.592.792.84 2.232.84 1.608 0 2.544-.984.96-1.008.96-2.88v-6.48zM860.402 174.184h3V187h-3zm1.512-2.112q-.816 0-1.368-.504-.552-.528-.552-1.296t.552-1.272q.552-.528 1.368-.528.816 0 1.368.504.552.48.552 1.224 0 .792-.552 1.344-.528.528-1.368.528zM867.338 169.192h3V187h-3zM886.826 169.192V187h-2.88v-1.656q-.744.912-1.848 1.368-1.08.456-2.4.456-1.848 0-3.336-.816-1.464-.816-2.304-2.304-.84-1.512-.84-3.456t.84-3.432q.84-1.488 2.304-2.304 1.488-.816 3.336-.816 1.272 0 2.328.432 1.056.432 1.8 1.296v-6.576zm-6.768 15.408q1.08 0 1.944-.48.864-.504 1.368-1.416.504-.912.504-2.112 0-1.2-.504-2.112-.504-.912-1.368-1.392-.864-.504-1.944-.504t-1.944.504q-.864.48-1.368 1.392-.504.912-.504 2.112 0 1.2.504 2.112.504.912 1.368 1.416.864.48 1.944.48z"/></g><path d="M755.5 246.5h155v51h-155z" fill="none" stroke="#2f5597" stroke-width="3" stroke-miterlimit="8"/><g aria-label="transpile" fill="#2f5597"><path d="M787.726 279.304q-.528.432-1.296.648-.744.216-1.584.216-2.112 0-3.264-1.104-1.152-1.104-1.152-3.216v-6.168h-2.112v-2.4h2.112v-2.928h3v2.928h3.432v2.4h-3.432v6.096q0 .936.456 1.44.456.48 1.32.48 1.008 0 1.68-.528zM793.054 269.056q1.296-2.016 4.56-2.016v2.856q-.384-.072-.696-.072-1.752 0-2.736 1.032-.984 1.008-.984 2.928V280h-3v-12.816h2.856zM804.982 267.04q2.832 0 4.32 1.368 1.512 1.344 1.512 4.08V280h-2.832v-1.56q-.552.84-1.584 1.296-1.008.432-2.448.432t-2.52-.48q-1.08-.504-1.68-1.368-.576-.888-.576-1.992 0-1.728 1.272-2.76 1.296-1.056 4.056-1.056h3.312v-.192q0-1.344-.816-2.064-.792-.72-2.376-.72-1.08 0-2.136.336-1.032.336-1.752.936l-1.176-2.184q1.008-.768 2.424-1.176 1.416-.408 3-.408zm-.408 10.944q1.128 0 1.992-.504.888-.528 1.248-1.488v-1.488h-3.096q-2.592 0-2.592 1.704 0 .816.648 1.296.648.48 1.8.48zM821.926 267.04q2.424 0 3.888 1.416t1.464 4.2V280h-3v-6.96q0-1.68-.792-2.52-.792-.864-2.256-.864-1.656 0-2.616 1.008-.96.984-.96 2.856V280h-3v-12.816h2.856v1.656q.744-.888 1.872-1.344 1.128-.456 2.544-.456zM835.054 280.168q-1.56 0-3.048-.408t-2.376-1.032l1.152-2.28q.864.576 2.064.936 1.224.336 2.4.336 2.688 0 2.688-1.416 0-.672-.696-.936-.672-.264-2.184-.504-1.584-.24-2.592-.552-.984-.312-1.728-1.08-.72-.792-.72-2.184 0-1.824 1.512-2.904 1.536-1.104 4.128-1.104 1.32 0 2.64.312 1.32.288 2.16.792l-1.152 2.28q-1.632-.96-3.672-.96-1.32 0-2.016.408-.672.384-.672 1.032 0 .72.72 1.032.744.288 2.28.552 1.536.24 2.52.552.984.312 1.68 1.056.72.744.72 2.112 0 1.8-1.56 2.88-1.56 1.08-4.248 1.08zM850.558 267.04q1.872 0 3.336.816 1.488.816 2.328 2.304.84 1.488.84 3.432t-.84 3.456q-.84 1.488-2.328 2.304-1.464.816-3.336.816-2.592 0-4.104-1.728v6.216h-3v-17.472h2.856v1.68q.744-.912 1.824-1.368 1.104-.456 2.424-.456zm-.336 10.56q1.656 0 2.712-1.104 1.08-1.104 1.08-2.904 0-1.8-1.08-2.904-1.056-1.104-2.712-1.104-1.08 0-1.944.504-.864.48-1.368 1.392-.504.912-.504 2.112 0 1.2.504 2.112.504.912 1.368 1.416.864.48 1.944.48zM859.918 267.184h3V280h-3zm1.512-2.112q-.816 0-1.368-.504-.552-.528-.552-1.296t.552-1.272q.552-.528 1.368-.528.816 0 1.368.504.552.48.552 1.224 0 .792-.552 1.344-.528.528-1.368.528zM866.854 262.192h3V280h-3zM885.838 273.664q0 .312-.048.888h-10.056q.264 1.416 1.368 2.256 1.128.816 2.784.816 2.112 0 3.48-1.392l1.608 1.848q-.864 1.032-2.184 1.56-1.32.528-2.976.528-2.112 0-3.72-.84T873.598 277q-.864-1.512-.864-3.408 0-1.872.84-3.36.864-1.512 2.376-2.352 1.512-.84 3.408-.84 1.872 0 3.336.84 1.488.816 2.304 2.328.84 1.488.84 3.456zm-6.48-4.224q-1.44 0-2.448.864-.984.84-1.2 2.256h7.272q-.192-1.392-1.176-2.256-.984-.864-2.448-.864z"/></g><path d="M835 204.5v22.498h-1.5l1.5-1.5v11.999h-3v-13.499h1.5l-1.5 1.5V204.5zm-1.5 32.997l7.5-6-7.5 15-7.5-15z" fill="#2F5597"/><path d="M755.5 340.5h155v51h-155z" fill="none" stroke="#2f5597" stroke-width="3" stroke-miterlimit="8"/><g aria-label="bundle" fill="#2f5597"><path d="M797.71 361.04q1.872 0 3.336.816 1.488.816 2.328 2.304.84 1.488.84 3.432t-.84 3.456q-.84 1.488-2.328 2.304-1.464.816-3.336.816-1.32 0-2.424-.456-1.08-.456-1.824-1.368V374h-2.856v-17.808h3v6.552q.768-.84 1.8-1.272 1.056-.432 2.304-.432zm-.336 10.56q1.656 0 2.712-1.104 1.08-1.104 1.08-2.904 0-1.8-1.08-2.904-1.056-1.104-2.712-1.104-1.08 0-1.944.504-.864.48-1.368 1.392-.504.912-.504 2.112 0 1.2.504 2.112.504.912 1.368 1.416.864.48 1.944.48zM819.478 361.184V374h-2.856v-1.632q-.72.864-1.8 1.344-1.08.456-2.328.456-2.568 0-4.056-1.416-1.464-1.44-1.464-4.248v-7.32h3v6.912q0 1.728.768 2.592.792.84 2.232.84 1.608 0 2.544-.984.96-1.008.96-2.88v-6.48zM830.686 361.04q2.424 0 3.888 1.416t1.464 4.2V374h-3v-6.96q0-1.68-.792-2.52-.792-.864-2.256-.864-1.656 0-2.616 1.008-.96.984-.96 2.856V374h-3v-12.816h2.856v1.656q.744-.888 1.872-1.344 1.128-.456 2.544-.456zM852.526 356.192V374h-2.88v-1.656q-.744.912-1.848 1.368-1.08.456-2.4.456-1.848 0-3.336-.816-1.464-.816-2.304-2.304-.84-1.512-.84-3.456t.84-3.432q.84-1.488 2.304-2.304 1.488-.816 3.336-.816 1.272 0 2.328.432 1.056.432 1.8 1.296v-6.576zm-6.768 15.408q1.08 0 1.944-.48.864-.504 1.368-1.416.504-.912.504-2.112 0-1.2-.504-2.112-.504-.912-1.368-1.392-.864-.504-1.944-.504t-1.944.504q-.864.48-1.368 1.392-.504.912-.504 2.112 0 1.2.504 2.112.504.912 1.368 1.416.864.48 1.944.48zM856.462 356.192h3V374h-3zM875.446 367.664q0 .312-.048.888h-10.056q.264 1.416 1.368 2.256 1.128.816 2.784.816 2.112 0 3.48-1.392l1.608 1.848q-.864 1.032-2.184 1.56-1.32.528-2.976.528-2.112 0-3.72-.84T863.206 371q-.864-1.512-.864-3.408 0-1.872.84-3.36.864-1.512 2.376-2.352 1.512-.84 3.408-.84 1.872 0 3.336.84 1.488.816 2.304 2.328.84 1.488.84 3.456zm-6.48-4.224q-1.44 0-2.448.864-.984.84-1.2 2.256h7.272q-.192-1.392-1.176-2.256-.984-.864-2.448-.864z"/></g><path d="M832 297.5v23.288h1.5l-1.5-1.5v12.787h3v-14.287h-1.5l1.5 1.5V297.5zm1.5 34.575l-7.5-6 7.5 15 7.5-15zM832 391.5v18.939h1.5l-1.5-1.5v8.438h3v-9.938h-1.5l1.5 1.5V391.5zm1.5 25.877l-7.5-6 7.5 15 7.5-15zM910.5 462h16.158v1.5l-1.5-1.5h5.659v3h-7.159v-1.5l1.5 1.5H910.5zm20.317 1.5l-6-7.5 15 7.5-15 7.5zM609.831 411.151v62.981l1.5-1.5H251.056l1.5 1.5V178.5l-1.5 1.5H306.5v-3h-56.944v298.632h363.275v-64.481zM306.5 178.5l-6 7.5 15-7.5-15-7.5z" fill="#2F5597"/><path d="M831.887 499.346v15l1.5-1.5H250.055l1.5 1.5V178.5l-1.5 1.5H306.5v-3h-57.945v338.846h586.332v-16.5zM306.5 178.5l-6 7.5 15-7.5-15-7.5z" fill="#2F5597"/></g></svg>