<svg width="986" height="492" xmlns="http://www.w3.org/2000/svg" xmlns:xlink="http://www.w3.org/1999/xlink" overflow="hidden"><defs><clipPath id="clip0"><rect x="107" y="54" width="986" height="492"/></clipPath></defs><g clip-path="url(#clip0)" transform="translate(-107 -54)"><rect x="108" y="54" width="982" height="492" fill="#FFFFFF"/><path d="M138.588 154.5 206.412 154.5C215.297 154.5 222.5 165.917 222.5 180 222.5 194.083 215.297 205.5 206.412 205.5L138.588 205.5C129.703 205.5 122.5 194.083 122.5 180 122.5 165.917 129.703 154.5 138.588 154.5Z" stroke="#2F5597" stroke-width="3" stroke-miterlimit="8" fill="none" fill-rule="evenodd"/><text fill="#2F5597" font-family="Montserrat,Montserrat_MSFontService,sans-serif" font-weight="600" font-size="24" transform="translate(143.429 188)">start</text><path d="M296.5 204.5 333.5 153.5 481.5 153.5 444.5 204.5Z" stroke="#2F5597" stroke-width="3" stroke-miterlimit="8" fill="none" fill-rule="evenodd"/><text fill="#2F5597" font-family="Montserrat,Montserrat_MSFontService,sans-serif" font-weight="600" font-size="24" transform="translate(364.111 187)">edit</text><rect x="311.5" y="246.5" width="155" height="51" stroke="#2F5597" stroke-width="3" stroke-miterlimit="8" fill="none"/><text fill="#2F5597" font-family="Montserrat,Montserrat_MSFontService,sans-serif" font-weight="600" font-size="24" transform="translate(368.111 280)">lint</text><path d="M311.5 375 389 338.5 466.5 375 389 411.5Z" stroke="#2F5597" stroke-width="3" stroke-miterlimit="8" fill="none" fill-rule="evenodd"/><text fill="#2F5597" font-family="Montserrat,Montserrat_MSFontService,sans-serif" font-weight="600" font-size="24" transform="translate(366.027 383)">ok?</text><path d="M755.5 463 833 426.5 910.5 463 833 499.5Z" stroke="#2F5597" stroke-width="3" stroke-miterlimit="8" fill="none" fill-rule="evenodd"/><text fill="#2F5597" font-family="Montserrat,Montserrat_MSFontService,sans-serif" font-weight="600" font-size="24" transform="translate(810.138 471)">ok?</text><path d="M959.645 437.5 1040.36 437.5C1050.93 437.5 1059.5 448.917 1059.5 463 1059.5 477.083 1050.93 488.5 1040.36 488.5L959.645 488.5C949.071 488.5 940.5 477.083 940.5 463 940.5 448.917 949.071 437.5 959.645 437.5Z" stroke="#2F5597" stroke-width="3" stroke-miterlimit="8" fill="none" fill-rule="evenodd"/><text fill="#2F5597" font-family="Montserrat,Montserrat_MSFontService,sans-serif" font-weight="600" font-size="24" transform="translate(975.451 471)">end</text><path d="M0-1.5 47.6103-1.5 47.6103 0.000104987 46.1103-1.49989 83.2207-1.49989 83.2207 1.5001 44.6103 1.5001 44.6103 0 46.1103 1.5 0 1.5ZM83.2207 0.000104987 77.2207-7.49989 92.2207 0.000104987 77.2207 7.5001Z" fill="#2F5597" transform="matrix(1 0 0 -1 222.5 178.5)"/><path d="M390 204.5 390 226.998 388.5 226.998 390 225.498 390 237.497 387 237.497 387 223.998 388.5 223.998 387 225.498 387 204.5ZM388.5 237.497 396 231.497 388.5 246.497 381 231.497Z" fill="#2F5597"/><path d="M390 297.5 390 319.598 388.5 319.598 390 318.098 390 329.697 387 329.697 387 316.598 388.5 316.598 387 318.098 387 297.5ZM388.5 329.697 396 323.697 388.5 338.697 381 323.697Z" fill="#2F5597"/><path d="M518.5 204.5 555.5 153.5 703.5 153.5 666.5 204.5Z" stroke="#2F5597" stroke-width="3" stroke-miterlimit="8" fill="none" fill-rule="evenodd"/><text fill="#2F5597" font-family="Montserrat,Montserrat_MSFontService,sans-serif" font-weight="600" font-size="24" transform="translate(582.666 187)">save</text><rect x="533.5" y="246.5" width="155" height="51" stroke="#2F5597" stroke-width="3" stroke-miterlimit="8" fill="none"/><text fill="#2F5597" font-family="Montserrat,Montserrat_MSFontService,sans-serif" font-weight="600" font-size="24" transform="translate(568.333 280)">format</text><path d="M533.5 375 611 338.5 688.5 375 611 411.5Z" stroke="#2F5597" stroke-width="3" stroke-miterlimit="8" fill="none" fill-rule="evenodd"/><text fill="#2F5597" font-family="Montserrat,Montserrat_MSFontService,sans-serif" font-weight="600" font-size="24" transform="translate(568.583 383)">ready?</text><path d="M612 204.5 612 226.998 610.5 226.998 612 225.498 612 237.497 609 237.497 609 223.998 610.5 223.998 609 225.498 609 204.5ZM610.5 237.497 618 231.497 610.5 246.497 603 231.497Z" fill="#2F5597"/><path d="M612 297.5 612 319.598 610.5 319.598 612 318.098 612 329.697 609 329.697 609 316.598 610.5 316.598 609 318.098 609 297.5ZM610.5 329.697 618 323.697 610.5 338.697 603 323.697Z" fill="#2F5597"/><path d="M0-1.5 30.8158-1.5 30.8158 196.126 29.3158 194.626 61.3863 194.626 61.3863 197.626 27.8158 197.626 27.8158 0 29.3158 1.5 0 1.5ZM61.3863 196.126 55.3863 188.626 70.3864 196.126 55.3863 203.626Z" fill="#2F5597" transform="matrix(1 0 0 -1 466.5 374.626)"/><path d="M0 1.5-24.0004 1.5-22.5004 0-22.5004 138.021-24.0004 136.521 232.651 136.521 231.151 138.021 231.151 82.7762 234.151 82.7762 234.151 139.521-25.5004 139.521-25.5004-1.5 0-1.5ZM232.651 82.7762 225.151 88.7762 232.651 73.7762 240.151 88.7762Z" fill="#2F5597" transform="matrix(-6.12323e-17 -1 -1 6.12323e-17 389.276 411.151)"/><path d="M0-1.5 28.8563-1.5 28.8563 196.126 27.3563 194.626 61.3861 194.626 61.3861 197.626 25.8563 197.626 25.8563 0 27.3563 1.5 0 1.5ZM61.3861 196.126 55.3861 188.626 70.3861 196.126 55.3861 203.626Z" fill="#2F5597" transform="matrix(1 0 0 -1 688.5 374.626)"/><path d="M740.5 204.5 777.5 153.5 925.5 153.5 888.5 204.5Z" stroke="#2F5597" stroke-width="3" stroke-miterlimit="8" fill="none" fill-rule="evenodd"/><text fill="#2F5597" font-family="Montserrat,Montserrat_MSFontService,sans-serif" font-weight="600" font-size="24" transform="translate(776.138 187)">run build</text><rect x="755.5" y="246.5" width="155" height="51" stroke="#2F5597" stroke-width="3" stroke-miterlimit="8" fill="none"/><text fill="#2F5597" font-family="Montserrat,Montserrat_MSFontService,sans-serif" font-weight="600" font-size="24" transform="translate(778.054 280)">transpile</text><path d="M835 204.5 835 226.998 833.5 226.998 835 225.498 835 237.497 832 237.497 832 223.998 833.5 223.998 832 225.498 832 204.5ZM833.5 237.497 841 231.497 833.5 246.497 826 231.497Z" fill="#2F5597"/><rect x="755.5" y="340.5" width="155" height="51" stroke="#2F5597" stroke-width="3" stroke-miterlimit="8" fill="none"/><text fill="#2F5597" font-family="Montserrat,Montserrat_MSFontService,sans-serif" font-weight="600" font-size="24" transform="translate(788.638 374)">bundle</text><path d="M0-1.5 23.2878-1.5 23.2878 0.000104987 21.7878-1.49989 34.5755-1.49989 34.5755 1.5001 20.2878 1.5001 20.2878 0 21.7878 1.5 0 1.5ZM34.5755 0.000104987 28.5755-7.49989 43.5755 0.000104987 28.5755 7.5001Z" fill="#2F5597" transform="matrix(1.83697e-16 1 1 -1.83697e-16 833.5 297.5)"/><path d="M0-1.5 18.9387-1.5 18.9387 0.000104987 17.4387-1.49989 25.8774-1.49989 25.8774 1.5001 15.9387 1.5001 15.9387 0 17.4387 1.5 0 1.5ZM25.8774 0.000104987 19.8774-7.49989 34.8774 0.000104987 19.8774 7.5001Z" fill="#2F5597" transform="matrix(1.83697e-16 1 1 -1.83697e-16 833.5 391.5)"/><path d="M910.5 462 926.658 462 926.658 463.5 925.158 462 930.817 462 930.817 465 923.658 465 923.658 463.5 925.158 465 910.5 465ZM930.817 463.5 924.817 456 939.817 463.5 924.817 471Z" fill="#2F5597"/><path d="M0 1.5-62.981 1.5-61.481 0-61.481 360.275-62.981 358.775 232.651 358.775 231.151 360.275 231.151 304.831 234.151 304.831 234.151 361.775-64.481 361.775-64.481-1.5 0-1.5ZM232.651 304.831 225.151 310.831 232.651 295.831 240.151 310.831Z" fill="#2F5597" transform="matrix(-6.12323e-17 -1 -1 6.12323e-17 611.331 411.151)"/><path d="M0 1.5-14.9997 1.5-13.4997 0-13.4997 583.332-14.9997 581.832 320.846 581.832 319.346 583.332 319.346 526.887 322.346 526.887 322.346 584.832-16.4997 584.832-16.4997-1.5 0-1.5ZM320.846 526.887 313.346 532.887 320.846 517.887 328.346 532.887Z" fill="#2F5597" transform="matrix(-6.12323e-17 -1 -1 6.12323e-17 833.387 499.346)"/><text fill="#2F5597" font-family="Montserrat,Montserrat_MSFontService,sans-serif" font-weight="700" font-size="43" transform="translate(405.941 115)">p5.js Templates</text><path d="M108.5 120.5 1091.18 120.5" stroke="#2F5597" stroke-width="3" stroke-miterlimit="8" fill="none" fill-rule="evenodd"/></g></svg>